<?xml version="1.0" encoding="UTF-8" standalone="no"?>
<svg xmlns="http://www.w3.org/2000/svg" width="5120" height="5120" viewBox="0 0 5120 5120">
  <defs>
    <style>
      .cls-1 {
        fill: #fff;
        fill-rule: evenodd;
      }
    </style>
  </defs>
  <path class="cls-1" d="M490.165,2586.21L0,4158.91l429.249-790.97H1192.83L1793.5,1398.98H1428L1652.55,958,944.914,1617.92H1351.06l41.09-81.72h92.08L927.374,3063.59l-102.762.6L1188.8,2086.65H891.843L573.748,2823.66Z"/>
  <path class="cls-1" d="M1849.49,1397.43h260.67L1743.57,3062.65h117.58l312-1665.22h252.92L2223.49,3367.94H1277.16Z"/>
  <path class="cls-1" d="M2728.4,3368.2H2305.33l181.66-1970.77h218.17l-6.07,266.95,90.75,275.85-3.35-245.1-28.92-297.7h218.17l259.03,1975.11H2811.33l-13.01-1092.37-104.87-326.08Z"/>
  <path class="cls-1" d="M3556.57,1398.98H3341.24l97.75,422.47-58.09,124.89-109.08-547.36H3036.66l274.83,1973.58h425L3412.07,2108.23l119,121.81,297.5,1142.52h457.58L3841.32,2169.91l-232.33-174.23,86.41-168.07Z"/>
  <path class="cls-1" d="M3609.61,1398.98H3845.5l-212.01-445.6L4176.5,1617.92H3964.98l535.24,1206.01,99.87-225.38,519.92,1568.07-446.48-787.89-308.84-6.17Z"/>
</svg>
