<?xml version="1.0" encoding="UTF-8" standalone="no"?>
<!DOCTYPE svg PUBLIC "-//W3C//DTD SVG 1.1//EN" "http://www.w3.org/Graphics/SVG/1.1/DTD/svg11.dtd">
<svg width="100%" height="100%" viewBox="0 0 90 90" version="1.1" xmlns="http://www.w3.org/2000/svg" xmlns:xlink="http://www.w3.org/1999/xlink" xml:space="preserve" xmlns:serif="http://www.serif.com/" style="fill-rule:evenodd;clip-rule:evenodd;stroke-linejoin:round;stroke-miterlimit:2;">
    <g transform="matrix(1,0,0,1,-36,-15)">
        <g transform="matrix(1,0,0,1,39.313,-6.58766)">
            <path d="M27.622,89.153C27.622,94.342 23.376,98.562 18.157,98.562C12.936,98.562 8.688,94.342 8.688,89.153C8.688,83.965 12.936,79.746 18.157,79.746C23.376,79.746 27.622,83.965 27.622,89.153ZM74.037,41.161L73.22,41.206L74.04,41.136L74.047,40.927L74.044,40.872C74.034,40.74 74.009,40.614 73.957,40.36C73.922,40.111 73.883,39.861 73.824,39.619C73.758,39.35 73.671,39.09 73.574,38.817C73.497,38.603 73.42,38.394 73.325,38.187C73.204,37.925 73.061,37.677 72.913,37.433C72.8,37.245 72.687,37.056 72.556,36.875C72.39,36.649 72.21,36.438 72.015,36.223C71.857,36.05 71.698,35.877 71.49,35.679L71.3,35.488C71.208,35.408 71.109,35.343 70.917,35.219C70.709,35.061 70.499,34.911 70.268,34.771C70.046,34.637 69.823,34.515 69.587,34.401C69.356,34.29 69.123,34.189 68.875,34.097C68.632,34.009 68.39,33.936 68.149,33.874C67.896,33.806 67.638,33.75 67.376,33.708C67.117,33.669 66.861,33.644 66.494,33.617C66.285,33.589 66.138,33.569 65.81,33.615C65.559,33.626 65.309,33.656 65.054,33.692C64.786,33.727 64.522,33.765 64.26,33.83C64.033,33.886 63.812,33.961 63.504,34.065C63.272,34.145 63.046,34.225 62.833,34.321C62.615,34.42 62.408,34.538 62.101,34.715C61.903,34.833 61.704,34.95 61.514,35.084C61.297,35.24 61.094,35.414 60.899,35.591C60.705,35.758 60.52,35.928 60.31,36.145L41.377,58.05L22.642,36.339C19.793,33.036 14.776,32.656 11.458,35.485C9.849,36.857 8.873,38.768 8.71,40.867C8.55,42.967 9.221,45.003 10.598,46.602L35.225,75.138C36.606,76.737 38.526,77.707 40.644,77.868C40.849,77.883 41.057,77.893 41.325,77.878L41.498,77.891C41.702,77.891 41.904,77.883 42.115,77.867C44.228,77.707 46.15,76.737 47.531,75.138L58.202,62.77L58.202,89.934C58.202,94.281 61.758,97.817 66.133,97.817C70.507,97.817 74.065,94.281 74.065,89.934L74.065,41.469L74.037,41.161Z" style="fill:white;"/>
        </g>
    </g>
</svg>
